<mxfile host="app.diagrams.net" modified="2022-06-04T19:27:15.020Z" agent="5.0 (Windows NT 10.0; Win64; x64) AppleWebKit/537.36 (KHTML, like Gecko) Chrome/102.0.5005.63 Safari/537.36" etag="SY86kOKBJCfcaN9klk8i" version="19.0.0" type="github">
  <diagram id="ROPJrq2IIXaWx1oVJtoM" name="DomainModel">
    <mxGraphModel dx="1422" dy="786" grid="1" gridSize="10" guides="1" tooltips="1" connect="1" arrows="1" fold="1" page="1" pageScale="1" pageWidth="827" pageHeight="1169" math="0" shadow="0">
      <root>
        <mxCell id="0" />
        <mxCell id="1" parent="0" />
        <mxCell id="GZTJ7-JCTW0fnLTZL_83-5" value="&lt;p style=&quot;margin:0px;margin-top:4px;text-align:center;text-decoration:underline;&quot;&gt;&lt;b&gt;Player&lt;/b&gt;&lt;/p&gt;&lt;hr&gt;&lt;p style=&quot;margin:0px;margin-left:8px;&quot;&gt;name&lt;/p&gt;&lt;p style=&quot;margin:0px;margin-left:8px;&quot;&gt;cardInventory&lt;/p&gt;" style="verticalAlign=top;align=left;overflow=fill;fontSize=12;fontFamily=Helvetica;html=1;" parent="1" vertex="1">
          <mxGeometry x="357" y="580" width="160" height="90" as="geometry" />
        </mxCell>
        <mxCell id="GZTJ7-JCTW0fnLTZL_83-10" value="&lt;p style=&quot;margin:0px;margin-top:4px;text-align:center;text-decoration:underline;&quot;&gt;&lt;b&gt;Dice&lt;/b&gt;&lt;/p&gt;&lt;hr&gt;&lt;p style=&quot;margin:0px;margin-left:8px;&quot;&gt;value&lt;/p&gt;" style="verticalAlign=top;align=left;overflow=fill;fontSize=12;fontFamily=Helvetica;html=1;" parent="1" vertex="1">
          <mxGeometry x="357" y="140" width="160" height="90" as="geometry" />
        </mxCell>
        <mxCell id="GZTJ7-JCTW0fnLTZL_83-11" value="&lt;p style=&quot;margin:0px;margin-top:4px;text-align:center;text-decoration:underline;&quot;&gt;&lt;b&gt;Card&lt;/b&gt;&lt;/p&gt;&lt;hr&gt;&lt;p style=&quot;margin:0px;margin-left:8px;&quot;&gt;hammer&lt;/p&gt;&lt;p style=&quot;margin:0px;margin-left:8px;&quot;&gt;saw&lt;/p&gt;&lt;p style=&quot;margin:0px;margin-left:8px;&quot;&gt;philipsDriver&lt;/p&gt;" style="verticalAlign=top;align=left;overflow=fill;fontSize=12;fontFamily=Helvetica;html=1;" parent="1" vertex="1">
          <mxGeometry x="73" y="579" width="160" height="90" as="geometry" />
        </mxCell>
        <mxCell id="XsCl1-yESDeX2pDNbbkY-1" value="&lt;p style=&quot;margin:0px;margin-top:4px;text-align:center;text-decoration:underline;&quot;&gt;&lt;b&gt;Bridge Game&lt;/b&gt;&lt;/p&gt;&lt;hr&gt;&lt;p style=&quot;margin:0px;margin-left:8px;&quot;&gt;&lt;br&gt;&lt;/p&gt;&lt;p style=&quot;margin:0px;margin-left:8px;&quot;&gt;&lt;br&gt;&lt;/p&gt;" style="verticalAlign=top;align=left;overflow=fill;fontSize=12;fontFamily=Helvetica;html=1;" parent="1" vertex="1">
          <mxGeometry x="357" y="350" width="160" height="90" as="geometry" />
        </mxCell>
        <mxCell id="XsCl1-yESDeX2pDNbbkY-6" value="" style="endArrow=none;html=1;rounded=0;entryX=0.5;entryY=1;entryDx=0;entryDy=0;exitX=0.5;exitY=0;exitDx=0;exitDy=0;" parent="1" source="XsCl1-yESDeX2pDNbbkY-24" target="GZTJ7-JCTW0fnLTZL_83-5" edge="1">
          <mxGeometry width="50" height="50" relative="1" as="geometry">
            <mxPoint x="443" y="760" as="sourcePoint" />
            <mxPoint x="493" y="440" as="targetPoint" />
          </mxGeometry>
        </mxCell>
        <mxCell id="XsCl1-yESDeX2pDNbbkY-8" value="" style="endArrow=none;html=1;rounded=0;entryX=0.5;entryY=1;entryDx=0;entryDy=0;exitX=0.25;exitY=1;exitDx=0;exitDy=0;" parent="1" source="XsCl1-yESDeX2pDNbbkY-13" target="XsCl1-yESDeX2pDNbbkY-1" edge="1">
          <mxGeometry width="50" height="50" relative="1" as="geometry">
            <mxPoint x="363" y="420" as="sourcePoint" />
            <mxPoint x="413" y="370" as="targetPoint" />
          </mxGeometry>
        </mxCell>
        <mxCell id="XsCl1-yESDeX2pDNbbkY-9" value="" style="endArrow=none;html=1;rounded=0;entryX=0;entryY=0.5;entryDx=0;entryDy=0;" parent="1" source="XsCl1-yESDeX2pDNbbkY-1" edge="1">
          <mxGeometry width="50" height="50" relative="1" as="geometry">
            <mxPoint x="363" y="520" as="sourcePoint" />
            <mxPoint x="593" y="395" as="targetPoint" />
          </mxGeometry>
        </mxCell>
        <mxCell id="XsCl1-yESDeX2pDNbbkY-10" value="" style="endArrow=none;html=1;rounded=0;entryX=0;entryY=0.5;entryDx=0;entryDy=0;" parent="1" target="XsCl1-yESDeX2pDNbbkY-1" edge="1">
          <mxGeometry width="50" height="50" relative="1" as="geometry">
            <mxPoint x="233" y="395" as="sourcePoint" />
            <mxPoint x="413" y="370" as="targetPoint" />
          </mxGeometry>
        </mxCell>
        <mxCell id="XsCl1-yESDeX2pDNbbkY-13" value="2...4" style="text;html=1;strokeColor=none;fillColor=none;align=center;verticalAlign=middle;whiteSpace=wrap;rounded=0;" parent="1" vertex="1">
          <mxGeometry x="423" y="550" width="60" height="30" as="geometry" />
        </mxCell>
        <mxCell id="XsCl1-yESDeX2pDNbbkY-14" value="1" style="text;html=1;strokeColor=none;fillColor=none;align=center;verticalAlign=middle;whiteSpace=wrap;rounded=0;" parent="1" vertex="1">
          <mxGeometry x="413" y="440" width="60" height="30" as="geometry" />
        </mxCell>
        <mxCell id="XsCl1-yESDeX2pDNbbkY-15" value="plays" style="text;html=1;strokeColor=none;fillColor=none;align=center;verticalAlign=middle;whiteSpace=wrap;rounded=0;" parent="1" vertex="1">
          <mxGeometry x="423" y="490" width="60" height="30" as="geometry" />
        </mxCell>
        <mxCell id="XsCl1-yESDeX2pDNbbkY-19" value="" style="endArrow=none;html=1;rounded=0;entryX=0.5;entryY=1;entryDx=0;entryDy=0;" parent="1" source="XsCl1-yESDeX2pDNbbkY-1" target="GZTJ7-JCTW0fnLTZL_83-10" edge="1">
          <mxGeometry width="50" height="50" relative="1" as="geometry">
            <mxPoint x="233" y="635" as="sourcePoint" />
            <mxPoint x="373" y="635" as="targetPoint" />
          </mxGeometry>
        </mxCell>
        <mxCell id="XsCl1-yESDeX2pDNbbkY-20" value="1" style="text;html=1;strokeColor=none;fillColor=none;align=center;verticalAlign=middle;whiteSpace=wrap;rounded=0;" parent="1" vertex="1">
          <mxGeometry x="413" y="330" width="60" height="30" as="geometry" />
        </mxCell>
        <mxCell id="XsCl1-yESDeX2pDNbbkY-21" value="1" style="text;html=1;strokeColor=none;fillColor=none;align=center;verticalAlign=middle;whiteSpace=wrap;rounded=0;" parent="1" vertex="1">
          <mxGeometry x="413" y="230" width="60" height="30" as="geometry" />
        </mxCell>
        <mxCell id="XsCl1-yESDeX2pDNbbkY-23" value="played with" style="text;html=1;strokeColor=none;fillColor=none;align=center;verticalAlign=middle;whiteSpace=wrap;rounded=0;" parent="1" vertex="1">
          <mxGeometry x="427" y="280" width="90" height="30" as="geometry" />
        </mxCell>
        <mxCell id="XsCl1-yESDeX2pDNbbkY-24" value="&lt;p style=&quot;margin:0px;margin-top:4px;text-align:center;text-decoration:underline;&quot;&gt;&lt;b&gt;Piece&lt;/b&gt;&lt;/p&gt;&lt;hr&gt;&lt;p style=&quot;margin:0px;margin-left:8px;&quot;&gt;location&lt;/p&gt;" style="verticalAlign=top;align=left;overflow=fill;fontSize=12;fontFamily=Helvetica;html=1;" parent="1" vertex="1">
          <mxGeometry x="357" y="780" width="160" height="90" as="geometry" />
        </mxCell>
        <mxCell id="XsCl1-yESDeX2pDNbbkY-25" value="owns" style="text;html=1;strokeColor=none;fillColor=none;align=center;verticalAlign=middle;whiteSpace=wrap;rounded=0;" parent="1" vertex="1">
          <mxGeometry x="431" y="710" width="44" height="30" as="geometry" />
        </mxCell>
        <mxCell id="XsCl1-yESDeX2pDNbbkY-26" value="1" style="text;html=1;strokeColor=none;fillColor=none;align=center;verticalAlign=middle;whiteSpace=wrap;rounded=0;" parent="1" vertex="1">
          <mxGeometry x="416" y="760" width="60" height="30" as="geometry" />
        </mxCell>
        <mxCell id="XsCl1-yESDeX2pDNbbkY-28" value="1" style="text;html=1;strokeColor=none;fillColor=none;align=center;verticalAlign=middle;whiteSpace=wrap;rounded=0;" parent="1" vertex="1">
          <mxGeometry x="431" y="670" width="30" height="30" as="geometry" />
        </mxCell>
        <mxCell id="XsCl1-yESDeX2pDNbbkY-32" value="&lt;p style=&quot;margin:0px;margin-top:4px;text-align:center;text-decoration:underline;&quot;&gt;&lt;b&gt;Map&lt;/b&gt;&lt;/p&gt;&lt;hr&gt;&lt;p style=&quot;margin:0px;margin-left:8px;&quot;&gt;row&lt;/p&gt;&lt;p style=&quot;margin:0px;margin-left:8px;&quot;&gt;column&lt;/p&gt;" style="verticalAlign=top;align=left;overflow=fill;fontSize=12;fontFamily=Helvetica;html=1;" parent="1" vertex="1">
          <mxGeometry x="593" y="350" width="160" height="90" as="geometry" />
        </mxCell>
        <mxCell id="XsCl1-yESDeX2pDNbbkY-33" value="&lt;p style=&quot;margin:0px;margin-top:4px;text-align:center;text-decoration:underline;&quot;&gt;&lt;b&gt;Score&lt;/b&gt;&lt;/p&gt;&lt;hr&gt;&lt;p style=&quot;margin:0px;margin-left:8px;&quot;&gt;/ playerList&lt;/p&gt;&lt;p style=&quot;margin:0px;margin-left:8px;&quot;&gt;scoreValue&lt;/p&gt;" style="verticalAlign=top;align=left;overflow=fill;fontSize=12;fontFamily=Helvetica;html=1;" parent="1" vertex="1">
          <mxGeometry x="73" y="350" width="160" height="90" as="geometry" />
        </mxCell>
        <mxCell id="XsCl1-yESDeX2pDNbbkY-35" value="&lt;p style=&quot;margin:0px;margin-top:4px;text-align:center;text-decoration:underline;&quot;&gt;&lt;b&gt;Square&lt;/b&gt;&lt;/p&gt;&lt;hr&gt;&lt;p style=&quot;margin:0px;margin-left:8px;&quot;&gt;cell&lt;/p&gt;&lt;p style=&quot;margin:0px;margin-left:8px;&quot;&gt;bridge&lt;/p&gt;&lt;p style=&quot;margin:0px;margin-left:8px;&quot;&gt;tool&lt;/p&gt;" style="verticalAlign=top;align=left;overflow=fill;fontSize=12;fontFamily=Helvetica;html=1;" parent="1" vertex="1">
          <mxGeometry x="593" y="580" width="160" height="90" as="geometry" />
        </mxCell>
        <mxCell id="XsCl1-yESDeX2pDNbbkY-36" value="" style="endArrow=none;html=1;rounded=0;exitX=0.5;exitY=0;exitDx=0;exitDy=0;" parent="1" source="XsCl1-yESDeX2pDNbbkY-35" edge="1">
          <mxGeometry width="50" height="50" relative="1" as="geometry">
            <mxPoint x="673" y="560" as="sourcePoint" />
            <mxPoint x="672.5" y="440" as="targetPoint" />
          </mxGeometry>
        </mxCell>
        <mxCell id="XsCl1-yESDeX2pDNbbkY-37" value="contains" style="text;html=1;strokeColor=none;fillColor=none;align=center;verticalAlign=middle;whiteSpace=wrap;rounded=0;" parent="1" vertex="1">
          <mxGeometry x="673" y="500" width="60" height="30" as="geometry" />
        </mxCell>
        <mxCell id="XsCl1-yESDeX2pDNbbkY-38" value="1" style="text;html=1;strokeColor=none;fillColor=none;align=center;verticalAlign=middle;whiteSpace=wrap;rounded=0;" parent="1" vertex="1">
          <mxGeometry x="653" y="440" width="60" height="30" as="geometry" />
        </mxCell>
        <mxCell id="XsCl1-yESDeX2pDNbbkY-39" value="*" style="text;html=1;strokeColor=none;fillColor=none;align=center;verticalAlign=middle;whiteSpace=wrap;rounded=0;" parent="1" vertex="1">
          <mxGeometry x="653" y="560" width="60" height="30" as="geometry" />
        </mxCell>
        <mxCell id="XsCl1-yESDeX2pDNbbkY-40" value="record" style="text;html=1;strokeColor=none;fillColor=none;align=center;verticalAlign=middle;whiteSpace=wrap;rounded=0;" parent="1" vertex="1">
          <mxGeometry x="250" y="372" width="90" height="30" as="geometry" />
        </mxCell>
        <mxCell id="XsCl1-yESDeX2pDNbbkY-41" value="1" style="text;html=1;strokeColor=none;fillColor=none;align=center;verticalAlign=middle;whiteSpace=wrap;rounded=0;" parent="1" vertex="1">
          <mxGeometry x="331" y="377" width="30" height="20" as="geometry" />
        </mxCell>
        <mxCell id="XsCl1-yESDeX2pDNbbkY-43" value="1" style="text;html=1;strokeColor=none;fillColor=none;align=center;verticalAlign=middle;whiteSpace=wrap;rounded=0;" parent="1" vertex="1">
          <mxGeometry x="225" y="378" width="30" height="20" as="geometry" />
        </mxCell>
        <mxCell id="XsCl1-yESDeX2pDNbbkY-53" value="1" style="text;html=1;strokeColor=none;fillColor=none;align=center;verticalAlign=middle;whiteSpace=wrap;rounded=0;" parent="1" vertex="1">
          <mxGeometry x="553" y="372" width="60" height="30" as="geometry" />
        </mxCell>
        <mxCell id="XsCl1-yESDeX2pDNbbkY-54" value="1" style="text;html=1;strokeColor=none;fillColor=none;align=center;verticalAlign=middle;whiteSpace=wrap;rounded=0;" parent="1" vertex="1">
          <mxGeometry x="493" y="373" width="60" height="30" as="geometry" />
        </mxCell>
        <mxCell id="XsCl1-yESDeX2pDNbbkY-55" value="played on" style="text;html=1;strokeColor=none;fillColor=none;align=center;verticalAlign=middle;whiteSpace=wrap;rounded=0;" parent="1" vertex="1">
          <mxGeometry x="523" y="390" width="60" height="30" as="geometry" />
        </mxCell>
        <mxCell id="XsCl1-yESDeX2pDNbbkY-61" value="" style="endArrow=none;html=1;rounded=0;entryX=0.5;entryY=1;entryDx=0;entryDy=0;" parent="1" target="XsCl1-yESDeX2pDNbbkY-35" edge="1">
          <mxGeometry width="50" height="50" relative="1" as="geometry">
            <mxPoint x="673" y="820" as="sourcePoint" />
            <mxPoint x="403" y="570" as="targetPoint" />
          </mxGeometry>
        </mxCell>
        <mxCell id="XsCl1-yESDeX2pDNbbkY-62" value="" style="endArrow=none;html=1;rounded=0;exitX=0.996;exitY=0.44;exitDx=0;exitDy=0;exitPerimeter=0;" parent="1" source="XsCl1-yESDeX2pDNbbkY-24" edge="1">
          <mxGeometry width="50" height="50" relative="1" as="geometry">
            <mxPoint x="523" y="820" as="sourcePoint" />
            <mxPoint x="673" y="820" as="targetPoint" />
          </mxGeometry>
        </mxCell>
        <mxCell id="XsCl1-yESDeX2pDNbbkY-63" value="0...4" style="text;html=1;strokeColor=none;fillColor=none;align=center;verticalAlign=middle;whiteSpace=wrap;rounded=0;" parent="1" vertex="1">
          <mxGeometry x="503" y="820" width="60" height="30" as="geometry" />
        </mxCell>
        <mxCell id="XsCl1-yESDeX2pDNbbkY-64" value="1" style="text;html=1;strokeColor=none;fillColor=none;align=center;verticalAlign=middle;whiteSpace=wrap;rounded=0;" parent="1" vertex="1">
          <mxGeometry x="668" y="670" width="30" height="30" as="geometry" />
        </mxCell>
        <mxCell id="XsCl1-yESDeX2pDNbbkY-65" value="is on" style="text;html=1;strokeColor=none;fillColor=none;align=center;verticalAlign=middle;whiteSpace=wrap;rounded=0;" parent="1" vertex="1">
          <mxGeometry x="624" y="820" width="44" height="30" as="geometry" />
        </mxCell>
        <mxCell id="XsCl1-yESDeX2pDNbbkY-66" value="" style="endArrow=none;html=1;rounded=0;entryX=0.005;entryY=0.559;entryDx=0;entryDy=0;entryPerimeter=0;" parent="1" target="GZTJ7-JCTW0fnLTZL_83-5" edge="1">
          <mxGeometry width="50" height="50" relative="1" as="geometry">
            <mxPoint x="233" y="630" as="sourcePoint" />
            <mxPoint x="353" y="632" as="targetPoint" />
          </mxGeometry>
        </mxCell>
        <mxCell id="XsCl1-yESDeX2pDNbbkY-67" value="1" style="text;html=1;strokeColor=none;fillColor=none;align=center;verticalAlign=middle;whiteSpace=wrap;rounded=0;" parent="1" vertex="1">
          <mxGeometry x="335" y="609" width="30" height="30" as="geometry" />
        </mxCell>
        <mxCell id="XsCl1-yESDeX2pDNbbkY-68" value="0...*" style="text;html=1;strokeColor=none;fillColor=none;align=center;verticalAlign=middle;whiteSpace=wrap;rounded=0;" parent="1" vertex="1">
          <mxGeometry x="217" y="609" width="60" height="30" as="geometry" />
        </mxCell>
        <mxCell id="XsCl1-yESDeX2pDNbbkY-70" value="owns" style="text;html=1;strokeColor=none;fillColor=none;align=center;verticalAlign=middle;whiteSpace=wrap;rounded=0;" parent="1" vertex="1">
          <mxGeometry x="277" y="609" width="44" height="30" as="geometry" />
        </mxCell>
      </root>
    </mxGraphModel>
  </diagram>
</mxfile>
